{
    "asset" : {
        "generator" : "Khronos glTF Blender I/O v1.6.16",
        "version" : "2.0"
    },
    "scene" : 0,
    "scenes" : [
        {
            "name" : "Scene",
            "nodes" : [
                0,
                1,
                2,
                3,
                4,
                5,
                6
            ]
        }
    ],
    "nodes" : [
        {
            "mesh" : 0,
            "name" : "Fuselage",
            "scale" : [
                3.7348878383636475,
                1,
                1
            ],
            "translation" : [
                -1.8991619348526,
                0,
                0
            ]
        },
        {
            "name" : "Light",
            "rotation" : [
                0.16907575726509094,
                0.7558803558349609,
                -0.27217137813568115,
                0.570947527885437
            ],
            "translation" : [
                4.076245307922363,
                5.903861999511719,
                -1.0054539442062378
            ]
        },
        {
            "name" : "Camera",
            "rotation" : [
                0.483536034822464,
                0.33687159419059753,
                -0.20870360732078552,
                0.7804827094078064
            ],
            "translation" : [
                14.128087043762207,
                10.208690643310547,
                14.483779907226562
            ]
        },
        {
            "mesh" : 1,
            "name" : "Vertical_Tail",
            "translation" : [
                -7.109617710113525,
                1.054667353630066,
                0
            ]
        },
        {
            "mesh" : 2,
            "name" : "Wing"
        },
        {
            "mesh" : 3,
            "name" : "Horizontal_Tail",
            "rotation" : [
                -0.033483367413282394,
                0,
                0,
                0.9994392991065979
            ],
            "scale" : [
                0.508974015712738,
                0.508974015712738,
                0.508974015712738
            ],
            "translation" : [
                -7.469922065734863,
                1.501025676727295,
                2.190821409225464
            ]
        },
        {
            "mesh" : 4,
            "name" : "Wing_Support",
            "scale" : [
                1,
                0.3082910180091858,
                0.09469085931777954
            ],
            "translation" : [
                0.9289402961730957,
                1.045236349105835,
                -0.0003986470401287079
            ]
        }
    ],
    "materials" : [
        {
            "doubleSided" : true,
            "name" : "Material",
            "pbrMetallicRoughness" : {
                "baseColorFactor" : [
                    0.6094872355461121,
                    0.2913055717945099,
                    0.4573085308074951,
                    1
                ],
                "metallicFactor" : 0,
                "roughnessFactor" : 0.4000000059604645
            }
        },
        {
            "doubleSided" : true,
            "name" : "Material.001",
            "pbrMetallicRoughness" : {
                "baseColorFactor" : [
                    0.32031723856925964,
                    0.4570474326610565,
                    0.8000000715255737,
                    1
                ],
                "metallicFactor" : 0,
                "roughnessFactor" : 0.5
            }
        }
    ],
    "meshes" : [
        {
            "name" : "Cube",
            "primitives" : [
                {
                    "attributes" : {
                        "POSITION" : 0,
                        "NORMAL" : 1,
                        "TEXCOORD_0" : 2
                    },
                    "indices" : 3,
                    "material" : 0
                }
            ]
        },
        {
            "name" : "Cube.001",
            "primitives" : [
                {
                    "attributes" : {
                        "POSITION" : 4,
                        "NORMAL" : 5,
                        "TEXCOORD_0" : 6
                    },
                    "indices" : 7,
                    "material" : 0
                }
            ]
        },
        {
            "name" : "BezierCurve.001",
            "primitives" : [
                {
                    "attributes" : {
                        "POSITION" : 8,
                        "NORMAL" : 9,
                        "TEXCOORD_0" : 10
                    },
                    "indices" : 11,
                    "material" : 0
                }
            ]
        },
        {
            "name" : "BezierCurve.002",
            "primitives" : [
                {
                    "attributes" : {
                        "POSITION" : 12,
                        "NORMAL" : 13,
                        "TEXCOORD_0" : 14
                    },
                    "indices" : 15,
                    "material" : 0
                }
            ]
        },
        {
            "name" : "Cube.004",
            "primitives" : [
                {
                    "attributes" : {
                        "POSITION" : 16,
                        "NORMAL" : 17,
                        "TEXCOORD_0" : 18
                    },
                    "indices" : 19,
                    "material" : 1
                }
            ]
        }
    ],
    "accessors" : [
        {
            "bufferView" : 0,
            "componentType" : 5126,
            "count" : 88,
            "max" : [
                1.6585818529129028,
                0.9999997615814209,
                0.712052583694458
            ],
            "min" : [
                -1.283953309059143,
                -0.9999997615814209,
                -0.712052583694458
            ],
            "type" : "VEC3"
        },
        {
            "bufferView" : 1,
            "componentType" : 5126,
            "count" : 88,
            "type" : "VEC3"
        },
        {
            "bufferView" : 2,
            "componentType" : 5126,
            "count" : 88,
            "type" : "VEC2"
        },
        {
            "bufferView" : 3,
            "componentType" : 5123,
            "count" : 132,
            "type" : "SCALAR"
        },
        {
            "bufferView" : 4,
            "componentType" : 5126,
            "count" : 62,
            "max" : [
                0.6130179762840271,
                1.0370941162109375,
                0.12672902643680573
            ],
            "min" : [
                -0.6130179762840271,
                -1,
                -0.12727023661136627
            ],
            "type" : "VEC3"
        },
        {
            "bufferView" : 5,
            "componentType" : 5126,
            "count" : 62,
            "type" : "VEC3"
        },
        {
            "bufferView" : 6,
            "componentType" : 5126,
            "count" : 62,
            "type" : "VEC2"
        },
        {
            "bufferView" : 7,
            "componentType" : 5123,
            "count" : 96,
            "type" : "SCALAR"
        },
        {
            "bufferView" : 8,
            "componentType" : 5126,
            "count" : 288,
            "max" : [
                1.978115439414978,
                2.0997655391693115,
                8.432806015014648
            ],
            "min" : [
                -0.4874512851238251,
                0.9828264713287354,
                -8.432806015014648
            ],
            "type" : "VEC3"
        },
        {
            "bufferView" : 9,
            "componentType" : 5126,
            "count" : 288,
            "type" : "VEC3"
        },
        {
            "bufferView" : 10,
            "componentType" : 5126,
            "count" : 288,
            "type" : "VEC2"
        },
        {
            "bufferView" : 11,
            "componentType" : 5123,
            "count" : 552,
            "type" : "SCALAR"
        },
        {
            "bufferView" : 12,
            "componentType" : 5126,
            "count" : 144,
            "max" : [
                1.978115439414978,
                2.0997655391693115,
                -0.029669329524040222
            ],
            "min" : [
                -0.4874512851238251,
                0.9828264713287354,
                -8.432806015014648
            ],
            "type" : "VEC3"
        },
        {
            "bufferView" : 13,
            "componentType" : 5126,
            "count" : 144,
            "type" : "VEC3"
        },
        {
            "bufferView" : 14,
            "componentType" : 5126,
            "count" : 144,
            "type" : "VEC2"
        },
        {
            "bufferView" : 15,
            "componentType" : 5123,
            "count" : 276,
            "type" : "SCALAR"
        },
        {
            "bufferView" : 16,
            "componentType" : 5126,
            "count" : 40,
            "max" : [
                1.8272132873535156,
                0.9127424955368042,
                7.307802677154541
            ],
            "min" : [
                -1.3826358318328857,
                -0.9999997615814209,
                -7.307802200317383
            ],
            "type" : "VEC3"
        },
        {
            "bufferView" : 17,
            "componentType" : 5126,
            "count" : 40,
            "type" : "VEC3"
        },
        {
            "bufferView" : 18,
            "componentType" : 5126,
            "count" : 40,
            "type" : "VEC2"
        },
        {
            "bufferView" : 19,
            "componentType" : 5123,
            "count" : 60,
            "type" : "SCALAR"
        }
    ],
    "bufferViews" : [
        {
            "buffer" : 0,
            "byteLength" : 1056,
            "byteOffset" : 0
        },
        {
            "buffer" : 0,
            "byteLength" : 1056,
            "byteOffset" : 1056
        },
        {
            "buffer" : 0,
            "byteLength" : 704,
            "byteOffset" : 2112
        },
        {
            "buffer" : 0,
            "byteLength" : 264,
            "byteOffset" : 2816
        },
        {
            "buffer" : 0,
            "byteLength" : 744,
            "byteOffset" : 3080
        },
        {
            "buffer" : 0,
            "byteLength" : 744,
            "byteOffset" : 3824
        },
        {
            "buffer" : 0,
            "byteLength" : 496,
            "byteOffset" : 4568
        },
        {
            "buffer" : 0,
            "byteLength" : 192,
            "byteOffset" : 5064
        },
        {
            "buffer" : 0,
            "byteLength" : 3456,
            "byteOffset" : 5256
        },
        {
            "buffer" : 0,
            "byteLength" : 3456,
            "byteOffset" : 8712
        },
        {
            "buffer" : 0,
            "byteLength" : 2304,
            "byteOffset" : 12168
        },
        {
            "buffer" : 0,
            "byteLength" : 1104,
            "byteOffset" : 14472
        },
        {
            "buffer" : 0,
            "byteLength" : 1728,
            "byteOffset" : 15576
        },
        {
            "buffer" : 0,
            "byteLength" : 1728,
            "byteOffset" : 17304
        },
        {
            "buffer" : 0,
            "byteLength" : 1152,
            "byteOffset" : 19032
        },
        {
            "buffer" : 0,
            "byteLength" : 552,
            "byteOffset" : 20184
        },
        {
            "buffer" : 0,
            "byteLength" : 480,
            "byteOffset" : 20736
        },
        {
            "buffer" : 0,
            "byteLength" : 480,
            "byteOffset" : 21216
        },
        {
            "buffer" : 0,
            "byteLength" : 320,
            "byteOffset" : 21696
        },
        {
            "buffer" : 0,
            "byteLength" : 120,
            "byteOffset" : 22016
        }
    ],
    "buffers" : [
        {
            "byteLength" : 22136,
            "uri" : "data:application/octet-stream;base64,"
        }
    ]
}
